<svg width="24" height="24" viewBox="0 0 24 24" fill="none" xmlns="http://www.w3.org/2000/svg">
<g id="check-mark-circle-2">
<path id="primary" d="M20.9381 11C20.9783 11.3318 20.9983 11.6658 20.9981 12C20.9981 13.78 20.4702 15.5201 19.4813 17.0001C18.4923 18.4802 17.0867 19.6337 15.4422 20.3149C13.7977 20.9961 11.9881 21.1743 10.2422 20.8271C8.49641 20.4798 6.89276 19.6226 5.63409 18.364C4.37542 17.1053 3.51825 15.5016 3.17098 13.7558C2.82372 12.01 3.00195 10.2004 3.68314 8.55585C4.36432 6.91131 5.51788 5.50571 6.99792 4.51677C8.47796 3.52784 10.218 3 11.9981 3C13.3916 3.01301 14.7623 3.35568 15.9981 4" stroke="#009606" stroke-width="2" stroke-linecap="round" stroke-linejoin="round"/>
<path id="primary_2" d="M21 5L12 14L8 10" stroke="#009606" stroke-width="2" stroke-linecap="round" stroke-linejoin="round"/>
</g>
</svg>
